<mxfile host="Electron" agent="Mozilla/5.0 (Windows NT 10.0; Win64; x64) AppleWebKit/537.36 (KHTML, like Gecko) draw.io/25.0.2 Chrome/128.0.6613.186 Electron/32.2.5 Safari/537.36" version="25.0.2">
  <diagram name="Page-1" id="n2LW4A-cNuQAeGhDnVcr">
    <mxGraphModel dx="1050" dy="717" grid="1" gridSize="10" guides="1" tooltips="1" connect="1" arrows="1" fold="1" page="1" pageScale="1" pageWidth="850" pageHeight="1100" math="0" shadow="0">
      <root>
        <mxCell id="0" />
        <mxCell id="1" parent="0" />
        <mxCell id="OgMrbID0NDVpr653DVZi-4" value="" style="edgeStyle=orthogonalEdgeStyle;rounded=0;orthogonalLoop=1;jettySize=auto;html=1;" edge="1" parent="1" source="OgMrbID0NDVpr653DVZi-1" target="OgMrbID0NDVpr653DVZi-3">
          <mxGeometry relative="1" as="geometry" />
        </mxCell>
        <mxCell id="OgMrbID0NDVpr653DVZi-1" value="start&lt;span style=&quot;color: rgba(0, 0, 0, 0); font-family: monospace; font-size: 0px; text-align: start; text-wrap: nowrap;&quot;&gt;%3CmxGraphModel%3E%3Croot%3E%3CmxCell%20id%3D%220%22%2F%3E%3CmxCell%20id%3D%221%22%20parent%3D%220%22%2F%3E%3CmxCell%20id%3D%222%22%20value%3D%22%C4%90%E1%BA%A1t%22%20style%3D%22strokeWidth%3D2%3Bhtml%3D1%3Bshape%3Dmxgraph.flowchart.display%3BwhiteSpace%3Dwrap%3B%22%20vertex%3D%221%22%20parent%3D%221%22%3E%3CmxGeometry%20x%3D%22270%22%20y%3D%22840%22%20width%3D%22100%22%20height%3D%2260%22%20as%3D%22geometry%22%2F%3E%3C%2FmxCell%3E%3C%2Froot%3E%3C%2FmxGraphModel%3E&lt;/span&gt;" style="ellipse;whiteSpace=wrap;html=1;" vertex="1" parent="1">
          <mxGeometry x="380" y="80" width="120" height="80" as="geometry" />
        </mxCell>
        <mxCell id="OgMrbID0NDVpr653DVZi-2" value="end" style="ellipse;whiteSpace=wrap;html=1;" vertex="1" parent="1">
          <mxGeometry x="380" y="540" width="120" height="80" as="geometry" />
        </mxCell>
        <mxCell id="OgMrbID0NDVpr653DVZi-3" value="input: num1" style="shape=parallelogram;perimeter=parallelogramPerimeter;whiteSpace=wrap;html=1;fixedSize=1;" vertex="1" parent="1">
          <mxGeometry x="380" y="190" width="120" height="60" as="geometry" />
        </mxCell>
        <mxCell id="OgMrbID0NDVpr653DVZi-9" value="" style="edgeStyle=orthogonalEdgeStyle;rounded=0;orthogonalLoop=1;jettySize=auto;html=1;" edge="1" parent="1" source="OgMrbID0NDVpr653DVZi-5" target="OgMrbID0NDVpr653DVZi-8">
          <mxGeometry relative="1" as="geometry" />
        </mxCell>
        <mxCell id="OgMrbID0NDVpr653DVZi-5" value="num1&amp;lt;4?" style="strokeWidth=2;html=1;shape=mxgraph.flowchart.decision;whiteSpace=wrap;" vertex="1" parent="1">
          <mxGeometry x="190" y="270" width="100" height="100" as="geometry" />
        </mxCell>
        <mxCell id="OgMrbID0NDVpr653DVZi-6" style="edgeStyle=orthogonalEdgeStyle;rounded=0;orthogonalLoop=1;jettySize=auto;html=1;entryX=0.5;entryY=0;entryDx=0;entryDy=0;entryPerimeter=0;" edge="1" parent="1" source="OgMrbID0NDVpr653DVZi-3" target="OgMrbID0NDVpr653DVZi-5">
          <mxGeometry relative="1" as="geometry" />
        </mxCell>
        <mxCell id="OgMrbID0NDVpr653DVZi-7" value="true" style="text;html=1;align=center;verticalAlign=middle;resizable=0;points=[];autosize=1;strokeColor=none;fillColor=none;" vertex="1" parent="1">
          <mxGeometry x="200" y="370" width="40" height="30" as="geometry" />
        </mxCell>
        <mxCell id="OgMrbID0NDVpr653DVZi-10" style="edgeStyle=orthogonalEdgeStyle;rounded=0;orthogonalLoop=1;jettySize=auto;html=1;exitX=0.5;exitY=1;exitDx=0;exitDy=0;exitPerimeter=0;entryX=0;entryY=0.5;entryDx=0;entryDy=0;" edge="1" parent="1" source="OgMrbID0NDVpr653DVZi-8" target="OgMrbID0NDVpr653DVZi-2">
          <mxGeometry relative="1" as="geometry" />
        </mxCell>
        <mxCell id="OgMrbID0NDVpr653DVZi-8" value="Không Đạt" style="strokeWidth=2;html=1;shape=mxgraph.flowchart.display;whiteSpace=wrap;" vertex="1" parent="1">
          <mxGeometry x="190" y="400" width="100" height="60" as="geometry" />
        </mxCell>
        <mxCell id="OgMrbID0NDVpr653DVZi-11" value="false" style="text;html=1;align=center;verticalAlign=middle;resizable=0;points=[];autosize=1;strokeColor=none;fillColor=none;" vertex="1" parent="1">
          <mxGeometry x="285" y="280" width="50" height="30" as="geometry" />
        </mxCell>
        <mxCell id="OgMrbID0NDVpr653DVZi-16" value="" style="edgeStyle=orthogonalEdgeStyle;rounded=0;orthogonalLoop=1;jettySize=auto;html=1;" edge="1" parent="1" target="OgMrbID0NDVpr653DVZi-14">
          <mxGeometry relative="1" as="geometry">
            <mxPoint x="425" y="320" as="sourcePoint" />
          </mxGeometry>
        </mxCell>
        <mxCell id="OgMrbID0NDVpr653DVZi-13" style="edgeStyle=orthogonalEdgeStyle;rounded=0;orthogonalLoop=1;jettySize=auto;html=1;exitX=1;exitY=0.5;exitDx=0;exitDy=0;exitPerimeter=0;entryX=0;entryY=0.5;entryDx=0;entryDy=0;entryPerimeter=0;" edge="1" parent="1" source="OgMrbID0NDVpr653DVZi-5">
          <mxGeometry relative="1" as="geometry">
            <mxPoint x="325" y="320" as="targetPoint" />
          </mxGeometry>
        </mxCell>
        <mxCell id="OgMrbID0NDVpr653DVZi-17" value="" style="edgeStyle=orthogonalEdgeStyle;rounded=0;orthogonalLoop=1;jettySize=auto;html=1;" edge="1" parent="1" source="OgMrbID0NDVpr653DVZi-14" target="OgMrbID0NDVpr653DVZi-15">
          <mxGeometry relative="1" as="geometry" />
        </mxCell>
        <mxCell id="OgMrbID0NDVpr653DVZi-39" style="edgeStyle=orthogonalEdgeStyle;rounded=0;orthogonalLoop=1;jettySize=auto;html=1;exitX=0.5;exitY=1;exitDx=0;exitDy=0;exitPerimeter=0;" edge="1" parent="1" source="OgMrbID0NDVpr653DVZi-14" target="OgMrbID0NDVpr653DVZi-35">
          <mxGeometry relative="1" as="geometry" />
        </mxCell>
        <mxCell id="OgMrbID0NDVpr653DVZi-14" value="6&amp;lt;num1&amp;lt;=8?" style="strokeWidth=2;html=1;shape=mxgraph.flowchart.decision;whiteSpace=wrap;" vertex="1" parent="1">
          <mxGeometry x="460" y="270" width="100" height="100" as="geometry" />
        </mxCell>
        <mxCell id="OgMrbID0NDVpr653DVZi-26" value="" style="edgeStyle=orthogonalEdgeStyle;rounded=0;orthogonalLoop=1;jettySize=auto;html=1;" edge="1" parent="1" source="OgMrbID0NDVpr653DVZi-15" target="OgMrbID0NDVpr653DVZi-25">
          <mxGeometry relative="1" as="geometry" />
        </mxCell>
        <mxCell id="OgMrbID0NDVpr653DVZi-15" value="8&amp;lt;num1&amp;lt;=9?" style="strokeWidth=2;html=1;shape=mxgraph.flowchart.decision;whiteSpace=wrap;" vertex="1" parent="1">
          <mxGeometry x="590" y="270" width="100" height="100" as="geometry" />
        </mxCell>
        <mxCell id="OgMrbID0NDVpr653DVZi-21" value="false" style="text;html=1;align=center;verticalAlign=middle;resizable=0;points=[];autosize=1;strokeColor=none;fillColor=none;" vertex="1" parent="1">
          <mxGeometry x="415" y="280" width="50" height="30" as="geometry" />
        </mxCell>
        <mxCell id="OgMrbID0NDVpr653DVZi-22" value="false" style="text;html=1;align=center;verticalAlign=middle;resizable=0;points=[];autosize=1;strokeColor=none;fillColor=none;" vertex="1" parent="1">
          <mxGeometry x="550" y="280" width="50" height="30" as="geometry" />
        </mxCell>
        <mxCell id="OgMrbID0NDVpr653DVZi-23" value="4&amp;lt;=num1&amp;lt;=6?" style="strokeWidth=2;html=1;shape=mxgraph.flowchart.decision;whiteSpace=wrap;" vertex="1" parent="1">
          <mxGeometry x="325" y="270" width="100" height="100" as="geometry" />
        </mxCell>
        <mxCell id="OgMrbID0NDVpr653DVZi-41" style="edgeStyle=orthogonalEdgeStyle;rounded=0;orthogonalLoop=1;jettySize=auto;html=1;exitX=0.5;exitY=1;exitDx=0;exitDy=0;exitPerimeter=0;" edge="1" parent="1" source="OgMrbID0NDVpr653DVZi-25" target="OgMrbID0NDVpr653DVZi-37">
          <mxGeometry relative="1" as="geometry" />
        </mxCell>
        <mxCell id="OgMrbID0NDVpr653DVZi-25" value="8&amp;lt;num1&amp;lt;=9?" style="strokeWidth=2;html=1;shape=mxgraph.flowchart.decision;whiteSpace=wrap;" vertex="1" parent="1">
          <mxGeometry x="720" y="270" width="100" height="100" as="geometry" />
        </mxCell>
        <mxCell id="OgMrbID0NDVpr653DVZi-29" value="false" style="text;html=1;align=center;verticalAlign=middle;resizable=0;points=[];autosize=1;strokeColor=none;fillColor=none;" vertex="1" parent="1">
          <mxGeometry x="670" y="280" width="50" height="30" as="geometry" />
        </mxCell>
        <mxCell id="OgMrbID0NDVpr653DVZi-30" value="true" style="text;html=1;align=center;verticalAlign=middle;resizable=0;points=[];autosize=1;strokeColor=none;fillColor=none;" vertex="1" parent="1">
          <mxGeometry x="335" y="370" width="40" height="30" as="geometry" />
        </mxCell>
        <mxCell id="OgMrbID0NDVpr653DVZi-31" value="true" style="text;html=1;align=center;verticalAlign=middle;resizable=0;points=[];autosize=1;strokeColor=none;fillColor=none;" vertex="1" parent="1">
          <mxGeometry x="470" y="370" width="40" height="30" as="geometry" />
        </mxCell>
        <mxCell id="OgMrbID0NDVpr653DVZi-32" value="true" style="text;html=1;align=center;verticalAlign=middle;resizable=0;points=[];autosize=1;strokeColor=none;fillColor=none;" vertex="1" parent="1">
          <mxGeometry x="600" y="370" width="40" height="30" as="geometry" />
        </mxCell>
        <mxCell id="OgMrbID0NDVpr653DVZi-33" value="true" style="text;html=1;align=center;verticalAlign=middle;resizable=0;points=[];autosize=1;strokeColor=none;fillColor=none;" vertex="1" parent="1">
          <mxGeometry x="730" y="370" width="40" height="30" as="geometry" />
        </mxCell>
        <mxCell id="OgMrbID0NDVpr653DVZi-42" style="edgeStyle=orthogonalEdgeStyle;rounded=0;orthogonalLoop=1;jettySize=auto;html=1;exitX=0.5;exitY=1;exitDx=0;exitDy=0;exitPerimeter=0;entryX=0;entryY=0;entryDx=0;entryDy=0;" edge="1" parent="1" source="OgMrbID0NDVpr653DVZi-34" target="OgMrbID0NDVpr653DVZi-2">
          <mxGeometry relative="1" as="geometry" />
        </mxCell>
        <mxCell id="OgMrbID0NDVpr653DVZi-34" value="Trung Bình" style="strokeWidth=2;html=1;shape=mxgraph.flowchart.display;whiteSpace=wrap;" vertex="1" parent="1">
          <mxGeometry x="325" y="400" width="100" height="60" as="geometry" />
        </mxCell>
        <mxCell id="OgMrbID0NDVpr653DVZi-43" style="edgeStyle=orthogonalEdgeStyle;rounded=0;orthogonalLoop=1;jettySize=auto;html=1;exitX=0.5;exitY=1;exitDx=0;exitDy=0;exitPerimeter=0;entryX=1;entryY=0;entryDx=0;entryDy=0;" edge="1" parent="1" source="OgMrbID0NDVpr653DVZi-35" target="OgMrbID0NDVpr653DVZi-2">
          <mxGeometry relative="1" as="geometry" />
        </mxCell>
        <mxCell id="OgMrbID0NDVpr653DVZi-35" value="Khá" style="strokeWidth=2;html=1;shape=mxgraph.flowchart.display;whiteSpace=wrap;" vertex="1" parent="1">
          <mxGeometry x="460" y="400" width="100" height="60" as="geometry" />
        </mxCell>
        <mxCell id="OgMrbID0NDVpr653DVZi-44" style="edgeStyle=orthogonalEdgeStyle;rounded=0;orthogonalLoop=1;jettySize=auto;html=1;exitX=0.5;exitY=1;exitDx=0;exitDy=0;exitPerimeter=0;entryX=1;entryY=0.5;entryDx=0;entryDy=0;" edge="1" parent="1" source="OgMrbID0NDVpr653DVZi-36" target="OgMrbID0NDVpr653DVZi-2">
          <mxGeometry relative="1" as="geometry" />
        </mxCell>
        <mxCell id="OgMrbID0NDVpr653DVZi-36" value="Giỏi" style="strokeWidth=2;html=1;shape=mxgraph.flowchart.display;whiteSpace=wrap;" vertex="1" parent="1">
          <mxGeometry x="590" y="400" width="100" height="60" as="geometry" />
        </mxCell>
        <mxCell id="OgMrbID0NDVpr653DVZi-45" style="edgeStyle=orthogonalEdgeStyle;rounded=0;orthogonalLoop=1;jettySize=auto;html=1;exitX=0.5;exitY=1;exitDx=0;exitDy=0;exitPerimeter=0;" edge="1" parent="1" source="OgMrbID0NDVpr653DVZi-37">
          <mxGeometry relative="1" as="geometry">
            <mxPoint x="570" y="580" as="targetPoint" />
            <Array as="points">
              <mxPoint x="770" y="580" />
            </Array>
          </mxGeometry>
        </mxCell>
        <mxCell id="OgMrbID0NDVpr653DVZi-37" value="Xuất Sắc" style="strokeWidth=2;html=1;shape=mxgraph.flowchart.display;whiteSpace=wrap;" vertex="1" parent="1">
          <mxGeometry x="720" y="400" width="100" height="60" as="geometry" />
        </mxCell>
        <mxCell id="OgMrbID0NDVpr653DVZi-38" style="edgeStyle=orthogonalEdgeStyle;rounded=0;orthogonalLoop=1;jettySize=auto;html=1;exitX=0.5;exitY=1;exitDx=0;exitDy=0;exitPerimeter=0;entryX=0.5;entryY=0;entryDx=0;entryDy=0;entryPerimeter=0;" edge="1" parent="1" source="OgMrbID0NDVpr653DVZi-23" target="OgMrbID0NDVpr653DVZi-34">
          <mxGeometry relative="1" as="geometry" />
        </mxCell>
        <mxCell id="OgMrbID0NDVpr653DVZi-40" style="edgeStyle=orthogonalEdgeStyle;rounded=0;orthogonalLoop=1;jettySize=auto;html=1;exitX=0.5;exitY=1;exitDx=0;exitDy=0;exitPerimeter=0;entryX=0.5;entryY=0;entryDx=0;entryDy=0;entryPerimeter=0;" edge="1" parent="1" source="OgMrbID0NDVpr653DVZi-15" target="OgMrbID0NDVpr653DVZi-36">
          <mxGeometry relative="1" as="geometry" />
        </mxCell>
      </root>
    </mxGraphModel>
  </diagram>
</mxfile>
